<?xml version="1.0" encoding="UTF-8" standalone="no" ?>
<!-- Created with Inkscape (http://www.inkscape.org/) -->

<svg xmlns:dc="http://purl.org/dc/elements/1.1/" xmlns:cc="http://creativecommons.org/ns#" xmlns:rdf="http://www.w3.org/1999/02/22-rdf-syntax-ns#" xmlns:svg="http://www.w3.org/2000/svg" xmlns="http://www.w3.org/2000/svg" xmlns:sodipodi="http://sodipodi.sourceforge.net/DTD/sodipodi-0.dtd"
xmlns:inkscape="http://www.inkscape.org/namespaces/inkscape" width="230" height="500" id="svg2" version="1.1" inkscape:version="0.48.5 r10040" sodipodi:docname="New document 1">
  <defs id="defs4" />
  <sodipodi:namedview id="base" pagecolor="#ffffff" bordercolor="#666666" borderopacity="1.0" inkscape:pageopacity="0.0" inkscape:pageshadow="2" inkscape:zoom="0.49497475" inkscape:cx="177.26991" inkscape:cy="282.76396" inkscape:document-units="px" inkscape:current-layer="layer1"
  showgrid="false" inkscape:window-width="714" inkscape:window-height="768" inkscape:window-x="496" inkscape:window-y="157" inkscape:window-maximized="0" />
  <metadata id="metadata7">
    <rdf:RDF>
      <cc:Work rdf:about="">
        <dc:format>image/svg+xml</dc:format>
        <dc:type rdf:resource="http://purl.org/dc/dcmitype/StillImage" />
        <dc:title></dc:title>
      </cc:Work>
    </rdf:RDF>
  </metadata>
  <g inkscape:label="Layer 1" inkscape:groupmode="layer" id="layer1" transform="translate(0,-552.36218)">
    <path style="fill:#000000;fill-opacity:1" d="m 98.829138,1051.9094 c -18.988557,-1.7668 -33.556809,-7.8571 -43.051414,-17.998 -7.492434,-8.0023 -10.774776,-14.1745 -13.864576,-26.071 -2.095191,-8.06685 -2.498817,-11.85429 -2.495681,-23.4179 0.004,-16.27194 1.903125,-25.05799 8.091561,-37.44279 4.62016,-9.24619 8.505962,-14.53961 23.230274,-31.64516 18.948414,-22.0127 24.03139,-31.09987 27.039579,-48.3402 1.338798,-7.67285 1.400215,-10.62146 0.405793,-19.48307 C 95.347081,822.22447 87.211112,809.80586 54.81276,781.30909 27.700841,757.46213 19.564576,743.03152 19.610814,718.87437 c 0.04858,-25.3743 11.858913,-40.70486 36.628628,-47.54623 6.417431,-1.77249 10.216812,-2.08737 24.889335,-2.06267 39.133953,0.0658 78.325503,10.87458 105.873703,29.19916 9.18784,6.11159 25.10659,22.00782 29.51651,29.47478 5.23435,8.86288 9.79531,20.29949 11.71007,29.36308 2.38448,11.28698 2.35694,34.94355 -0.0579,49.67505 -3.49716,21.33459 -8.21502,34.22896 -25.80808,70.53598 -13.80843,28.49661 -15.89306,33.25755 -20.23391,46.21107 -5.75912,17.18575 -8.32144,32.3753 -9.49107,56.2639 -1.00475,20.52101 -5.38136,34.66131 -14.79365,47.79631 -13.5644,18.9292 -32.34444,26.6063 -59.015362,24.1246 z M 208.71227,681.72392 c -4.20637,-3.52463 -5.87821,-7.81141 -5.87821,-15.07239 0,-10.11582 4.45352,-16.84803 11.27272,-17.04051 9.3556,-0.26409 15.63733,15.43016 10.59828,26.47866 -3.71276,8.14051 -10.25227,10.44438 -15.99279,5.63424 z m -27.70526,-23.64807 c -1.74838,-1.46502 -3.78623,-4.11117 -4.52855,-5.88037 -1.65457,-3.94338 -1.76137,-14.60439 -0.19179,-19.14468 4.37404,-12.65267 15.09852,-18.34307 22.64812,-12.01707 4.31596,3.61647 5.87821,7.83387 5.87821,15.86869 0,17.07589 -13.92035,29.45687 -23.80599,21.17343 z m -34.73689,-14.5468 c -12.76276,-8.63627 -14.20047,-34.61064 -2.57777,-46.57149 8.32721,-8.56948 19.15768,-5.82569 25.17544,6.37794 2.53141,5.13356 2.79784,6.6591 2.79784,16.0199 0,8.9677 -0.31147,10.93674 -2.33798,14.78004 -5.98368,11.34814 -14.83817,14.95544 -23.05753,9.39361 z M 25.223505,642.64236 C 18.338539,639.42415 10.487335,630.78093 6.3511961,621.86624 -8.24569,590.40529 3.6945579,552.3151 28.138831,552.36216 c 14.237173,0.0274 28.359101,14.86256 33.757572,35.46248 2.296232,8.76214 2.309194,24.3154 0.02662,31.98135 -3.586624,12.04578 -9.816451,20.40459 -17.620401,23.64203 -5.444688,2.25871 -13.226296,1.93012 -19.079153,-0.80566 z m 70.252643,-5.88388 c -4.159273,-1.89087 -11.105795,-9.70778 -13.434611,-15.11794 -7.659052,-17.79315 -2.779471,-40.14743 10.203256,-46.74304 8.704077,-4.42191 19.032977,-0.33278 25.283377,10.0095 4.98867,8.25457 6.4306,14.42673 5.98003,25.59761 -0.33362,8.27154 -0.79395,10.38767 -3.32542,15.28718 -4.17071,8.07212 -8.87249,11.58222 -16.06392,11.99247 -3.38222,0.19294 -6.873355,-0.22142 -8.642712,-1.02578 z"
    id="path3002" inkscape:connector-curvature="0" />
  </g>
</svg>